<svg xmlns="http://www.w3.org/2000/svg" version="1.1" xmlns:xlink="http://www.w3.org/1999/xlink" xmlns:svgjs="http://svgjs.dev/svgjs" width="1000" height="1000" viewBox="0 0 1000 1000"><rect width="1000" height="1000" fill="#000000"></rect><g transform="matrix(0.7,0,0,0.7,149.57575757575756,282.1265587044535)"><svg viewBox="0 0 396 247" data-background-color="#398378" preserveAspectRatio="xMidYMid meet" height="623" width="1000" xmlns="http://www.w3.org/2000/svg" xmlns:xlink="http://www.w3.org/1999/xlink"><g id="tight-bounds" transform="matrix(1,0,0,1,0.2400000000000091,-0.09999999999999432)"><svg viewBox="0 0 395.52 247.2" height="247.2" width="395.52"><g><svg></svg></g><g><svg viewBox="0 0 395.52 247.2" height="247.2" width="395.52"><g transform="matrix(1,0,0,1,75.54432,89.06754821588126)"><svg viewBox="0 0 244.43135999999998 69.06490356823747" height="69.06490356823747" width="244.43135999999998"><g><svg viewBox="0 0 244.43135999999998 69.06490356823747" height="69.06490356823747" width="244.43135999999998"><g><svg viewBox="0 0 244.43135999999998 69.06490356823747" height="69.06490356823747" width="244.43135999999998"><g><svg viewBox="0 0 244.43135999999998 69.06490356823747" height="69.06490356823747" width="244.43135999999998"><g id="textblocktransform"><svg viewBox="0 0 244.43135999999998 69.06490356823747" height="69.06490356823747" width="244.43135999999998" id="textblock"><g><svg viewBox="0 0 244.43135999999998 43.46732687415426" height="43.46732687415426" width="244.43135999999998"><g transform="matrix(1,0,0,1,0,0)"><svg width="244.43135999999998" viewBox="4.130000114440918 -38.0099983215332 216.47999572753906 38.5" height="43.46732687415426" data-palette-color="#ffffff"><path d="M8.86-35.55L8.86 0 4.13 0 4.13-35.55 8.86-35.55ZM23.73-19.53L23.73-15.72 7.84-15.72 7.84-19.53 23.73-19.53ZM26.15-35.55L26.15-31.71 7.84-31.71 7.84-35.55 26.15-35.55ZM36.01-26.42L36.01 0 31.44 0 31.44-26.42 36.01-26.42ZM31.1-33.45L31.1-33.45Q31.1-34.52 31.77-35.28 32.44-36.04 33.76-36.04L33.76-36.04Q35.08-36.04 35.78-35.28 36.47-34.52 36.47-33.45L36.47-33.45Q36.47-32.4 35.78-31.65 35.08-30.91 33.76-30.91L33.76-30.91Q32.44-30.91 31.77-31.65 31.1-32.4 31.1-33.45ZM54.32-26.42L54.32-22.97 40.01-22.97 40.01-26.42 54.32-26.42ZM44.82-32.84L49.38-32.84 49.38-6.54Q49.38-5.18 49.8-4.49 50.21-3.81 50.87-3.59 51.53-3.37 52.29-3.37L52.29-3.37Q52.85-3.37 53.47-3.47 54.1-3.56 54.39-3.64L54.39-3.64 54.41 0Q53.88 0.17 53.01 0.33 52.14 0.49 50.92 0.49L50.92 0.49Q49.26 0.49 47.87-0.17 46.48-0.83 45.65-2.38 44.82-3.93 44.82-6.57L44.82-6.57 44.82-32.84ZM81.85-3.81L81.85 0 64.08 0 64.08-3.81 81.85-3.81ZM65.01-35.55L65.01 0 60.27 0 60.27-35.55 65.01-35.55ZM91.45-26.42L91.45 0 86.88 0 86.88-26.42 91.45-26.42ZM86.54-33.45L86.54-33.45Q86.54-34.52 87.21-35.28 87.88-36.04 89.2-36.04L89.2-36.04Q90.52-36.04 91.21-35.28 91.91-34.52 91.91-33.45L91.91-33.45Q91.91-32.4 91.21-31.65 90.52-30.91 89.2-30.91L89.2-30.91Q87.88-30.91 87.21-31.65 86.54-32.4 86.54-33.45ZM105.43 0L100.87 0 100.87-29.22Q100.87-33.47 103.2-35.74 105.53-38.01 109.58-38.01L109.58-38.01Q110.36-38.01 111.14-37.92 111.93-37.82 112.68-37.62L112.68-37.62 112.44-33.98Q111.93-34.08 111.28-34.13 110.63-34.18 110-34.18L110-34.18Q107.85-34.18 106.64-32.9 105.43-31.62 105.43-29.22L105.43-29.22 105.43 0ZM111.05-26.42L111.05-22.97 96.72-22.97 96.72-26.42 111.05-26.42ZM127.01 0.49L127.01 0.49Q123.32 0.49 120.6-1.16 117.88-2.81 116.38-5.69 114.88-8.57 114.88-12.28L114.88-12.28 114.88-13.33Q114.88-17.63 116.53-20.67 118.17-23.71 120.82-25.31 123.47-26.9 126.43-26.9L126.43-26.9Q130.23-26.9 132.64-25.21 135.04-23.51 136.18-20.59 137.31-17.68 137.31-13.99L137.31-13.99 137.31-11.96 117.59-11.96 117.59-15.63 132.75-15.63 132.75-15.97Q132.65-17.72 132.04-19.4 131.43-21.07 130.09-22.16 128.74-23.24 126.43-23.24L126.43-23.24Q124.37-23.24 122.8-22.08 121.23-20.92 120.33-18.71 119.44-16.5 119.44-13.33L119.44-13.33 119.44-12.28Q119.44-9.77 120.37-7.7 121.3-5.64 123.06-4.41 124.81-3.17 127.26-3.17L127.26-3.17Q129.65-3.17 131.31-4.15 132.97-5.13 134.21-6.76L134.21-6.76 136.97-4.61Q135.7-2.66 133.32-1.09 130.94 0.49 127.01 0.49ZM148.69-19.97L151.91-19.97Q154.25-19.97 155.81-20.78 157.36-21.58 158.12-22.96 158.89-24.34 158.89-26.1L158.89-26.1Q158.89-28.13 158.21-29.53 157.53-30.93 156.16-31.65 154.79-32.37 152.72-32.37L152.72-32.37Q150.81-32.37 149.37-31.62 147.93-30.86 147.13-29.49 146.32-28.13 146.32-26.25L146.32-26.25 141.75-26.25Q141.75-28.98 143.12-31.19 144.49-33.4 146.96-34.72 149.42-36.04 152.72-36.04L152.72-36.04Q155.94-36.04 158.36-34.9 160.77-33.76 162.12-31.53 163.46-29.3 163.46-26L163.46-26Q163.46-24.63 162.84-23.12 162.21-21.61 160.91-20.28 159.6-18.95 157.53-18.1 155.45-17.26 152.55-17.26L152.55-17.26 148.69-17.26 148.69-19.97ZM148.69-16.31L148.69-18.99 152.55-18.99Q155.94-18.99 158.16-18.19 160.38-17.38 161.66-16.05 162.95-14.72 163.47-13.11 164-11.5 164-9.91L164-9.91Q164-6.59 162.52-4.27 161.04-1.95 158.49-0.73 155.94 0.49 152.74 0.49L152.74 0.49Q150.42 0.49 148.37-0.17 146.32-0.83 144.77-2.09 143.22-3.34 142.34-5.19 141.46-7.03 141.46-9.4L141.46-9.4 146.03-9.4Q146.03-7.54 146.85-6.14 147.66-4.74 149.16-3.96 150.67-3.17 152.74-3.17L152.74-3.17Q155.84-3.17 157.64-4.83 159.43-6.49 159.43-9.81L159.43-9.81Q159.43-12.04 158.5-13.48 157.58-14.92 155.89-15.61 154.21-16.31 151.91-16.31L151.91-16.31 148.69-16.31ZM187.53-35.6L187.92-35.6 187.92-31.79 187.53-31.79Q183.94-31.79 181.54-30.63 179.13-29.47 177.7-27.53 176.27-25.59 175.66-23.17 175.05-20.75 175.05-18.24L175.05-18.24 175.05-13.01Q175.05-9.84 176.03-7.65 177.01-5.47 178.58-4.35 180.16-3.22 181.91-3.22L181.91-3.22Q184.01-3.22 185.47-4.27 186.92-5.32 187.69-7.17 188.46-9.01 188.46-11.38L188.46-11.38Q188.46-13.5 187.76-15.38 187.06-17.26 185.64-18.43 184.21-19.6 182.01-19.6L182.01-19.6Q180.13-19.6 178.51-18.69 176.88-17.77 175.86-16.28 174.83-14.79 174.69-13.06L174.69-13.06 172.29-13.09Q172.64-15.8 173.58-17.74 174.52-19.68 175.92-20.91 177.32-22.14 179.07-22.73 180.81-23.32 182.77-23.32L182.77-23.32Q186.31-23.32 188.55-21.61 190.8-19.9 191.87-17.21 192.95-14.53 192.95-11.6L192.95-11.6Q192.95-8.23 191.69-5.49 190.43-2.76 187.98-1.14 185.53 0.49 181.91 0.49L181.91 0.49Q179.03 0.49 176.88-0.7 174.74-1.88 173.32-3.85 171.9-5.81 171.2-8.23 170.49-10.64 170.49-13.13L170.49-13.13 170.49-15.28Q170.49-19.07 171.23-22.68 171.98-26.29 173.84-29.21 175.71-32.13 179.04-33.86 182.38-35.6 187.53-35.6L187.53-35.6ZM220.61-20.61L220.61-15.16Q220.61-9.38 219.25-5.94 217.9-2.51 215.38-1.01 212.87 0.49 209.43 0.49L209.43 0.49Q206.03 0.49 203.49-1.01 200.95-2.51 199.55-5.94 198.15-9.38 198.15-15.16L198.15-15.16 198.15-20.61Q198.15-26.42 199.53-29.79 200.91-33.15 203.43-34.59 205.96-36.04 209.38-36.04L209.38-36.04Q212.82-36.04 215.33-34.59 217.85-33.15 219.23-29.79 220.61-26.42 220.61-20.61L220.61-20.61ZM216.04-14.45L216.04-21.36Q216.04-25.37 215.29-27.78 214.53-30.2 213.04-31.29 211.55-32.37 209.38-32.37L209.38-32.37Q207.23-32.37 205.74-31.29 204.25-30.2 203.48-27.78 202.71-25.37 202.71-21.36L202.71-21.36 202.71-14.45Q202.71-10.47 203.49-7.98 204.27-5.49 205.78-4.33 207.28-3.17 209.43-3.17L209.43-3.17Q211.62-3.17 213.09-4.33 214.55-5.49 215.3-7.98 216.04-10.47 216.04-14.45L216.04-14.45Z" opacity="1" transform="matrix(1,0,0,1,0,0)" fill="#ffffff" class="wordmark-text-0" data-fill-palette-color="primary" id="text-0"></path></svg></g></svg></g><g transform="matrix(1,0,0,1,0,53.7289195332971)"><svg viewBox="0 0 244.43135999999998 15.335984034940367" height="15.335984034940367" width="244.43135999999998"><g transform="matrix(1,0,0,1,0,0)"><svg width="244.43135999999998" viewBox="0.20000000298023224 -37.099998474121094 595.239990234375 37.349998474121094" height="15.335984034940367" data-palette-color="#ffffff"><path d="M12.5 0L12.5-31.8 0.2-31.8 0.2-35 28.5-35 28.5-31.8 16.2-31.8 16.2 0 12.5 0ZM41.65 0.25Q37.85 0.25 34.8-1.48 31.75-3.2 30-6.25 28.25-9.3 28.25-13.15L28.25-13.15Q28.25-17 30-20.05 31.75-23.1 34.8-24.8 37.85-26.5 41.65-26.5L41.65-26.5Q45.45-26.5 48.5-24.8 51.55-23.1 53.27-20.05 55-17 55-13.15L55-13.15Q55-9.3 53.27-6.25 51.55-3.2 48.5-1.48 45.45 0.25 41.65 0.25L41.65 0.25ZM41.65-2.9Q44.45-2.9 46.67-4.17 48.9-5.45 50.15-7.8 51.4-10.15 51.4-13.15L51.4-13.15Q51.4-16.15 50.15-18.5 48.9-20.85 46.67-22.13 44.45-23.4 41.65-23.4L41.65-23.4Q38.85-23.4 36.62-22.13 34.4-20.85 33.12-18.5 31.85-16.15 31.85-13.15L31.85-13.15Q31.85-10.15 33.12-7.8 34.4-5.45 36.62-4.17 38.85-2.9 41.65-2.9L41.65-2.9ZM96.84-26.3L100.09-26.3 90.15 0 86.8 0 78.5-21.55 70.2 0 66.84 0 56.95-26.3 60.34-26.3 68.59-3.95 77.05-26.3 80.09-26.3 88.5-3.95 96.84-26.3ZM113.84-26.5Q118.99-26.5 121.74-23.93 124.49-21.35 124.49-16.3L124.49-16.3 124.49 0 121.09 0 121.09-4.1Q119.89-2.05 117.57-0.9 115.24 0.25 112.04 0.25L112.04 0.25Q107.64 0.25 105.04-1.85 102.44-3.95 102.44-7.4L102.44-7.4Q102.44-10.75 104.87-12.8 107.29-14.85 112.59-14.85L112.59-14.85 120.94-14.85 120.94-16.45Q120.94-19.85 119.04-21.63 117.14-23.4 113.49-23.4L113.49-23.4Q110.99-23.4 108.69-22.58 106.39-21.75 104.74-20.3L104.74-20.3 103.14-22.95Q105.14-24.65 107.94-25.58 110.74-26.5 113.84-26.5L113.84-26.5ZM112.59-2.55Q115.59-2.55 117.74-3.93 119.89-5.3 120.94-7.9L120.94-7.9 120.94-12.2 112.69-12.2Q105.94-12.2 105.94-7.5L105.94-7.5Q105.94-5.2 107.69-3.88 109.44-2.55 112.59-2.55L112.59-2.55ZM137.54-21.15Q138.79-23.8 141.26-25.15 143.74-26.5 147.39-26.5L147.39-26.5 147.39-23.05 146.54-23.1Q142.39-23.1 140.04-20.55 137.69-18 137.69-13.4L137.69-13.4 137.69 0 134.14 0 134.14-26.3 137.54-26.3 137.54-21.15ZM173.99-37.1L177.54-37.1 177.54 0 174.14 0 174.14-5.2Q172.54-2.55 169.91-1.15 167.29 0.25 163.99 0.25L163.99 0.25Q160.29 0.25 157.29-1.45 154.29-3.15 152.59-6.2 150.89-9.25 150.89-13.15L150.89-13.15Q150.89-17.05 152.59-20.1 154.29-23.15 157.29-24.83 160.29-26.5 163.99-26.5L163.99-26.5Q167.19-26.5 169.76-25.18 172.34-23.85 173.99-21.3L173.99-21.3 173.99-37.1ZM164.29-2.9Q167.04-2.9 169.26-4.17 171.49-5.45 172.76-7.8 174.04-10.15 174.04-13.15L174.04-13.15Q174.04-16.15 172.76-18.5 171.49-20.85 169.26-22.13 167.04-23.4 164.29-23.4L164.29-23.4Q161.49-23.4 159.26-22.13 157.04-20.85 155.76-18.5 154.49-16.15 154.49-13.15L154.49-13.15Q154.49-10.15 155.76-7.8 157.04-5.45 159.26-4.17 161.49-2.9 164.29-2.9L164.29-2.9ZM194.49 0.25Q191.29 0.25 188.36-0.68 185.44-1.6 183.79-3L183.79-3 185.39-5.8Q187.04-4.5 189.54-3.68 192.04-2.85 194.74-2.85L194.74-2.85Q198.34-2.85 200.06-3.98 201.79-5.1 201.79-7.15L201.79-7.15Q201.79-8.6 200.84-9.43 199.89-10.25 198.44-10.68 196.99-11.1 194.59-11.5L194.59-11.5Q191.39-12.1 189.44-12.73 187.49-13.35 186.11-14.85 184.74-16.35 184.74-19L184.74-19Q184.74-22.3 187.49-24.4 190.24-26.5 195.14-26.5L195.14-26.5Q197.69-26.5 200.24-25.83 202.79-25.15 204.44-24.05L204.44-24.05 202.89-21.2Q199.64-23.45 195.14-23.45L195.14-23.45Q191.74-23.45 190.01-22.25 188.29-21.05 188.29-19.1L188.29-19.1Q188.29-17.6 189.26-16.7 190.24-15.8 191.69-15.38 193.14-14.95 195.69-14.5L195.69-14.5Q198.84-13.9 200.74-13.3 202.64-12.7 203.99-11.25 205.34-9.8 205.34-7.25L205.34-7.25Q205.34-3.8 202.46-1.78 199.59 0.25 194.49 0.25L194.49 0.25ZM234.18-26.5Q239.33-26.5 242.08-23.93 244.83-21.35 244.83-16.3L244.83-16.3 244.83 0 241.43 0 241.43-4.1Q240.23-2.05 237.91-0.9 235.58 0.25 232.38 0.25L232.38 0.25Q227.98 0.25 225.38-1.85 222.78-3.95 222.78-7.4L222.78-7.4Q222.78-10.75 225.21-12.8 227.63-14.85 232.93-14.85L232.93-14.85 241.28-14.85 241.28-16.45Q241.28-19.85 239.38-21.63 237.48-23.4 233.83-23.4L233.83-23.4Q231.33-23.4 229.03-22.58 226.73-21.75 225.08-20.3L225.08-20.3 223.48-22.95Q225.48-24.65 228.28-25.58 231.08-26.5 234.18-26.5L234.18-26.5ZM232.93-2.55Q235.93-2.55 238.08-3.93 240.23-5.3 241.28-7.9L241.28-7.9 241.28-12.2 233.03-12.2Q226.28-12.2 226.28-7.5L226.28-7.5Q226.28-5.2 228.03-3.88 229.78-2.55 232.93-2.55L232.93-2.55ZM293.93-35L297.57-35 297.57 0 293.93 0 293.93-16.15 272.02-16.15 272.02 0 268.32 0 268.32-35 272.02-35 272.02-19.4 293.93-19.4 293.93-35ZM331.17-13.15L331.12-12.05 309.12-12.05Q309.42-7.95 312.27-5.43 315.12-2.9 319.47-2.9L319.47-2.9Q321.92-2.9 323.97-3.78 326.02-4.65 327.52-6.35L327.52-6.35 329.52-4.05Q327.77-1.95 325.15-0.85 322.52 0.25 319.37 0.25L319.37 0.25Q315.32 0.25 312.2-1.48 309.07-3.2 307.32-6.25 305.57-9.3 305.57-13.15L305.57-13.15Q305.57-17 307.25-20.05 308.92-23.1 311.85-24.8 314.77-26.5 318.42-26.5L318.42-26.5Q322.07-26.5 324.97-24.8 327.87-23.1 329.52-20.08 331.17-17.05 331.17-13.15L331.17-13.15ZM318.42-23.45Q314.62-23.45 312.05-21.03 309.47-18.6 309.12-14.7L309.12-14.7 327.77-14.7Q327.42-18.6 324.85-21.03 322.27-23.45 318.42-23.45L318.42-23.45ZM346.87-26.5Q352.02-26.5 354.77-23.93 357.52-21.35 357.52-16.3L357.52-16.3 357.52 0 354.12 0 354.12-4.1Q352.92-2.05 350.59-0.9 348.27 0.25 345.07 0.25L345.07 0.25Q340.67 0.25 338.07-1.85 335.47-3.95 335.47-7.4L335.47-7.4Q335.47-10.75 337.89-12.8 340.32-14.85 345.62-14.85L345.62-14.85 353.97-14.85 353.97-16.45Q353.97-19.85 352.07-21.63 350.17-23.4 346.52-23.4L346.52-23.4Q344.02-23.4 341.72-22.58 339.42-21.75 337.77-20.3L337.77-20.3 336.17-22.95Q338.17-24.65 340.97-25.58 343.77-26.5 346.87-26.5L346.87-26.5ZM345.62-2.55Q348.62-2.55 350.77-3.93 352.92-5.3 353.97-7.9L353.97-7.9 353.97-12.2 345.72-12.2Q338.97-12.2 338.97-7.5L338.97-7.5Q338.97-5.2 340.72-3.88 342.47-2.55 345.62-2.55L345.62-2.55ZM367.17 0L367.17-37.1 370.72-37.1 370.72 0 367.17 0ZM393.31-4.15L394.56-1.6Q393.56-0.7 392.09-0.23 390.62 0.25 389.01 0.25L389.01 0.25Q385.31 0.25 383.31-1.75 381.31-3.75 381.31-7.4L381.31-7.4 381.31-23.3 376.62-23.3 376.62-26.3 381.31-26.3 381.31-32.05 384.87-32.05 384.87-26.3 392.87-26.3 392.87-23.3 384.87-23.3 384.87-7.6Q384.87-5.25 386.04-4.03 387.21-2.8 389.41-2.8L389.41-2.8Q390.51-2.8 391.54-3.15 392.56-3.5 393.31-4.15L393.31-4.15ZM414.41-26.5Q419.36-26.5 422.29-23.63 425.21-20.75 425.21-15.25L425.21-15.25 425.21 0 421.66 0 421.66-14.9Q421.66-19 419.61-21.15 417.56-23.3 413.76-23.3L413.76-23.3Q409.51-23.3 407.04-20.78 404.56-18.25 404.56-13.8L404.56-13.8 404.56 0 401.01 0 401.01-37.1 404.56-37.1 404.56-21.7Q406.01-24 408.56-25.25 411.11-26.5 414.41-26.5L414.41-26.5ZM434.86 0L434.86-26.3 438.41-26.3 438.41 0 434.86 0ZM436.66-32.05Q435.56-32.05 434.81-32.8 434.06-33.55 434.06-34.6L434.06-34.6Q434.06-35.6 434.81-36.35 435.56-37.1 436.66-37.1L436.66-37.1Q437.76-37.1 438.51-36.38 439.26-35.65 439.26-34.65L439.26-34.65Q439.26-33.55 438.51-32.8 437.76-32.05 436.66-32.05L436.66-32.05ZM471.26-13.15L471.21-12.05 449.21-12.05Q449.51-7.95 452.36-5.43 455.21-2.9 459.56-2.9L459.56-2.9Q462.01-2.9 464.06-3.78 466.11-4.65 467.61-6.35L467.61-6.35 469.61-4.05Q467.86-1.95 465.23-0.85 462.61 0.25 459.46 0.25L459.46 0.25Q455.41 0.25 452.28-1.48 449.16-3.2 447.41-6.25 445.66-9.3 445.66-13.15L445.66-13.15Q445.66-17 447.33-20.05 449.01-23.1 451.93-24.8 454.86-26.5 458.51-26.5L458.51-26.5Q462.16-26.5 465.06-24.8 467.96-23.1 469.61-20.08 471.26-17.05 471.26-13.15L471.26-13.15ZM458.51-23.45Q454.71-23.45 452.13-21.03 449.56-18.6 449.21-14.7L449.21-14.7 467.86-14.7Q467.51-18.6 464.93-21.03 462.36-23.45 458.51-23.45L458.51-23.45ZM481.91-21.15Q483.16-23.8 485.63-25.15 488.11-26.5 491.75-26.5L491.75-26.5 491.75-23.05 490.91-23.1Q486.75-23.1 484.41-20.55 482.06-18 482.06-13.4L482.06-13.4 482.06 0 478.5 0 478.5-26.3 481.91-26.3 481.91-21.15ZM538.4-35L524.4-12.1 524.4 0 520.75 0 520.75-12.1 506.75-35 510.7-35 522.7-15.35 534.7-35 538.4-35ZM551.15 0.25Q547.35 0.25 544.3-1.48 541.25-3.2 539.5-6.25 537.75-9.3 537.75-13.15L537.75-13.15Q537.75-17 539.5-20.05 541.25-23.1 544.3-24.8 547.35-26.5 551.15-26.5L551.15-26.5Q554.95-26.5 558-24.8 561.05-23.1 562.77-20.05 564.5-17 564.5-13.15L564.5-13.15Q564.5-9.3 562.77-6.25 561.05-3.2 558-1.48 554.95 0.25 551.15 0.25L551.15 0.25ZM551.15-2.9Q553.95-2.9 556.17-4.17 558.4-5.45 559.65-7.8 560.9-10.15 560.9-13.15L560.9-13.15Q560.9-16.15 559.65-18.5 558.4-20.85 556.17-22.13 553.95-23.4 551.15-23.4L551.15-23.4Q548.35-23.4 546.12-22.13 543.9-20.85 542.62-18.5 541.35-16.15 541.35-13.15L541.35-13.15Q541.35-10.15 542.62-7.8 543.9-5.45 546.12-4.17 548.35-2.9 551.15-2.9L551.15-2.9ZM591.89-26.3L595.44-26.3 595.44 0 592.04 0 592.04-4.8Q590.64-2.4 588.19-1.07 585.75 0.25 582.59 0.25L582.59 0.25Q577.44 0.25 574.47-2.63 571.5-5.5 571.5-11.05L571.5-11.05 571.5-26.3 575.04-26.3 575.04-11.4Q575.04-7.25 577.09-5.1 579.14-2.95 582.94-2.95L582.94-2.95Q587.09-2.95 589.5-5.48 591.89-8 591.89-12.5L591.89-12.5 591.89-26.3Z" opacity="1" transform="matrix(1,0,0,1,0,0)" fill="#ffffff" class="slogan-text-1" data-fill-palette-color="secondary" id="text-1"></path></svg></g></svg></g></svg></g></svg></g></svg></g></svg></g></svg></g><g><path d="M245.816 0c68.262 0 123.6 55.338 123.6 123.6 0 68.262-55.338 123.6-123.6 123.6-54.389 0-100.573-35.13-117.099-83.937h2.072c16.447 47.706 61.735 81.977 115.027 81.977 67.18 0 121.64-54.46 121.64-121.64 0-67.18-54.46-121.64-121.64-121.64-53.292 0-98.58 34.271-115.027 81.977l-2.072 0c16.526-48.807 62.71-83.937 117.099-83.937z" fill="#ffffff" stroke="transparent" data-fill-palette-color="tertiary"></path></g></svg></g><defs></defs></svg><rect width="395.52" height="247.2" fill="none" stroke="none" visibility="hidden"></rect></g></svg></g></svg>